<?xml version="1.0" encoding="utf-8"?>
<!-- Generator: Adobe Illustrator 27.7.0, SVG Export Plug-In . SVG Version: 6.00 Build 0)  -->
<svg version="1.1" id="Layer_1" xmlns="http://www.w3.org/2000/svg" xmlns:xlink="http://www.w3.org/1999/xlink" x="0px" y="0px"
	 viewBox="0 0 80 80" style="enable-background:new 0 0 80 80;" xml:space="preserve">
<style type="text/css">
	.st0{fill:#101010;}
	.st1{fill:#FF0000;}
	.st2{fill:url(#SVGID_1_);}
	.st3{fill:url(#SVGID_00000084512396842295359110000010225523739321111218_);}
	.st4{fill:url(#SVGID_00000175300303584854642140000015895197160630014867_);}
	.st5{fill:#00A9D9;}
	.st6{fill:url(#SVGID_00000179608901288859137780000001675156766435920529_);}
	.st7{fill:url(#SVGID_00000095337684954259325760000010818740362961209521_);}
	.st8{fill:url(#SVGID_00000044878911677528474200000008165841179724931253_);}
	.st9{fill:url(#SVGID_00000072270543177172555060000003708757512836498818_);}
	.st10{fill:url(#SVGID_00000159433589908002065400000009028885932847020439_);}
	.st11{fill:#457796;}
	.st12{fill:#DE8F32;}
	.st13{fill:#FFFFFF;}
	.st14{fill-rule:evenodd;clip-rule:evenodd;}
	.st15{fill-rule:evenodd;clip-rule:evenodd;fill:#FF0000;}
</style>
<g>
	<g id="app">
		<g>
			<path class="st0" d="M70.95,3.61H8.64c-3.3,0-5.99,2.69-5.99,5.99v45.53c0,3.31,2.69,6,5.99,6h23.7l-1.92,9.58h-5.01
				c-1.98,0-3.59,1.61-3.59,3.6v2.39c0,0.67,0.54,1.2,1.2,1.2h33.55c0.66,0,1.2-0.53,1.2-1.2v-2.39c0-1.99-1.61-3.6-3.6-3.6h-5
				l-0.71-3.53l-2.48-0.17l0.74,3.7H32.87l1.92-9.58h6.31v-2.4H8.64c-1.98,0-3.6-1.61-3.6-3.6v-3.59H41.1v-2.4H5.04V9.6
				c0-1.98,1.62-3.59,3.6-3.59h62.31c1.98,0,3.59,1.61,3.59,3.59v39.54h-4.8v2.4h4.8v3.59c0,1.99-1.61,3.6-3.59,3.6h-1.21v2.4h1.21
				c3.3,0,5.99-2.69,5.99-6V9.6C76.94,6.3,74.25,3.61,70.95,3.61z M54.17,73.11c0.66,0,1.2,0.54,1.2,1.2v1.19H24.22v-1.19
				c0-0.66,0.53-1.2,1.19-1.2H54.17z"/>
		</g>
	</g>
	<g>
		<path class="st0" d="M4.51,50.31H41.1V60H7.15c-1.46,0-2.64-1.25-2.64-2.79V50.31z"/>
	</g>
	<g>
		<path class="st0" d="M75.51,50.31v6.93c0,1.52-0.91,2.76-2.02,2.76h-3.75v-9.69H75.51z"/>
	</g>
	<g>
		<rect x="22.78" y="72" class="st0" width="33.8" height="4.06"/>
	</g>
	<line class="st0" x1="48.46" y1="67.18" x2="48.21" y2="65.92"/>
</g>
<g>
	<circle class="st1" cx="55.37" cy="43.15" r="8.39"/>
	<circle class="st1" cx="55.37" cy="43.15" r="5.99"/>
</g>
<path class="st1" d="M56.57,59.93h-2.4c-0.66,0-1.19,0.53-1.19,1.2c0,0.66,0.53,1.19,1.19,1.19h2.4c0.66,0,1.2-0.53,1.2-1.19
	C57.77,60.46,57.23,59.93,56.57,59.93z"/>
<g>
	<circle class="st1" cx="55.37" cy="43.15" r="8.39"/>
	<circle class="st1" cx="55.37" cy="43.15" r="5.99"/>
</g>
<path class="st1" d="M56.57,59.93h-2.4c-0.66,0-1.19,0.53-1.19,1.2c0,0.66,0.53,1.19,1.19,1.19h2.4c0.66,0,1.2-0.53,1.2-1.19
	C57.77,60.46,57.23,59.93,56.57,59.93z"/>
<path class="st1" d="M56.57,59.93h-2.4c-0.66,0-1.19,0.53-1.19,1.2c0,0.66,0.53,1.19,1.19,1.19h2.4c0.66,0,1.2-0.53,1.2-1.19
	C57.77,60.46,57.23,59.93,56.57,59.93z"/>
<g>
	<circle class="st1" cx="55.37" cy="43.15" r="8.39"/>
	<circle class="st1" cx="55.37" cy="43.15" r="5.99"/>
</g>
<g>
	<circle class="st1" cx="55.37" cy="43.15" r="8.39"/>
	<circle class="st1" cx="55.37" cy="43.15" r="5.99"/>
</g>
<path class="st1" d="M56.57,59.93h-2.4c-0.66,0-1.19,0.53-1.19,1.2c0,0.66,0.53,1.19,1.19,1.19h2.4c0.66,0,1.2-0.53,1.2-1.19
	C57.77,60.46,57.23,59.93,56.57,59.93z"/>
<path class="st1" d="M56.57,59.93h-2.4c-0.66,0-1.19,0.53-1.19,1.2c0,0.66,0.53,1.19,1.19,1.19h2.4c0.66,0,1.2-0.53,1.2-1.19
	C57.77,60.46,57.23,59.93,56.57,59.93z"/>
<g>
	<circle class="st1" cx="55.37" cy="43.15" r="8.39"/>
	<circle class="st1" cx="55.37" cy="43.15" r="5.99"/>
</g>
<g>
	<circle class="st1" cx="55.37" cy="43.15" r="8.39"/>
	<circle class="st1" cx="55.37" cy="43.15" r="5.99"/>
</g>
<path class="st1" d="M56.57,59.93h-2.4c-0.66,0-1.19,0.53-1.19,1.2c0,0.66,0.53,1.19,1.19,1.19h2.4c0.66,0,1.2-0.53,1.2-1.19
	C57.77,60.46,57.23,59.93,56.57,59.93z"/>
<path class="st1" d="M56.57,59.93h-2.4c-0.66,0-1.19,0.53-1.19,1.2c0,0.66,0.53,1.19,1.19,1.19h2.4c0.66,0,1.2-0.53,1.2-1.19
	C57.77,60.46,57.23,59.93,56.57,59.93z"/>
<g>
	<circle class="st1" cx="55.37" cy="43.15" r="8.39"/>
	<circle class="st1" cx="55.37" cy="43.15" r="5.99"/>
</g>
<g>
	<circle class="st1" cx="55.37" cy="43.15" r="8.39"/>
	<circle class="st1" cx="55.37" cy="43.15" r="5.99"/>
</g>
<path class="st1" d="M56.57,59.93h-2.4c-0.66,0-1.19,0.53-1.19,1.2c0,0.66,0.53,1.19,1.19,1.19h2.4c0.66,0,1.2-0.53,1.2-1.19
	C57.77,60.46,57.23,59.93,56.57,59.93z"/>
<path class="st1" d="M56.57,59.93h-2.4c-0.66,0-1.19,0.53-1.19,1.2c0,0.66,0.53,1.19,1.19,1.19h2.4c0.66,0,1.2-0.53,1.2-1.19
	C57.77,60.46,57.23,59.93,56.57,59.93z"/>
<g>
	<circle class="st1" cx="55.37" cy="43.15" r="8.39"/>
	<circle class="st1" cx="55.37" cy="43.15" r="5.99"/>
</g>
<g>
	<circle class="st1" cx="55.37" cy="43.15" r="8.39"/>
	<circle class="st1" cx="55.37" cy="43.15" r="5.99"/>
</g>
<path class="st1" d="M56.57,59.93h-2.4c-0.66,0-1.19,0.53-1.19,1.2c0,0.66,0.53,1.19,1.19,1.19h2.4c0.66,0,1.2-0.53,1.2-1.19
	C57.77,60.46,57.23,59.93,56.57,59.93z"/>
<path class="st1" d="M56.57,59.93h-2.4c-0.66,0-1.19,0.53-1.19,1.2c0,0.66,0.53,1.19,1.19,1.19h2.4c0.66,0,1.2-0.53,1.2-1.19
	C57.77,60.46,57.23,59.93,56.57,59.93z"/>
<g>
	<circle class="st1" cx="55.37" cy="43.15" r="8.39"/>
	<circle class="st1" cx="55.37" cy="43.15" r="5.99"/>
</g>
<g>
	<circle class="st1" cx="55.37" cy="43.15" r="8.39"/>
	<circle class="st1" cx="55.37" cy="43.15" r="5.99"/>
</g>
<path class="st1" d="M56.57,59.93h-2.4c-0.66,0-1.19,0.53-1.19,1.2c0,0.66,0.53,1.19,1.19,1.19h2.4c0.66,0,1.2-0.53,1.2-1.19
	C57.77,60.46,57.23,59.93,56.57,59.93z"/>
<g>
	<path d="M63.76,21.01H46.98c-2.64,0-4.79,2.15-4.79,4.8v35.95c0,1.76,0.97,3.29,2.4,4.12c0,0,0.01,0,0.02,0.01
		c0.01,0.01,0.03,0.01,0.04,0.02c0.29,0.12,1.62,0.64,3.56,0.64h15.55c2.64,0,4.79-2.15,4.79-4.79V25.81
		C68.55,23.16,66.4,21.01,63.76,21.01z"/>
	<polygon class="st13" points="58.5,23.41 58.1,24.61 52.64,24.61 52.24,23.41 	"/>
	<path class="st13" d="M66.16,61.76c0,1.32-1.08,2.39-2.4,2.39H46.98c-1.32,0-2.39-1.07-2.39-2.39V25.81c0-1.32,1.07-2.4,2.39-2.4
		h2.74l0.92,2.78c0.16,0.49,0.62,0.82,1.14,0.82h7.19c0.51,0,0.97-0.33,1.13-0.82l0.93-2.78h2.73c1.32,0,2.4,1.08,2.4,2.4V61.76z"/>
</g>
<g>
	<circle class="st1" cx="55.37" cy="43.15" r="8.39"/>
	<circle class="st1" cx="55.37" cy="43.15" r="5.99"/>
</g>
<path class="st1" d="M56.57,59.93h-2.4c-0.66,0-1.19,0.53-1.19,1.2c0,0.66,0.53,1.19,1.19,1.19h2.4c0.66,0,1.2-0.53,1.2-1.19
	C57.77,60.46,57.23,59.93,56.57,59.93z"/>
<path class="st1" d="M56.57,59.93h-2.4c-0.66,0-1.19,0.53-1.19,1.2c0,0.66,0.53,1.19,1.19,1.19h2.4c0.66,0,1.2-0.53,1.2-1.19
	C57.77,60.46,57.23,59.93,56.57,59.93z"/>
<g>
	<circle class="st1" cx="55.37" cy="43.15" r="8.39"/>
	<circle class="st1" cx="55.37" cy="43.15" r="5.99"/>
</g>
<g>
	<circle class="st1" cx="55.37" cy="43.15" r="8.39"/>
	<circle class="st1" cx="55.37" cy="43.15" r="5.99"/>
</g>
<path class="st1" d="M56.57,59.93h-2.4c-0.66,0-1.19,0.53-1.19,1.2c0,0.66,0.53,1.19,1.19,1.19h2.4c0.66,0,1.2-0.53,1.2-1.19
	C57.77,60.46,57.23,59.93,56.57,59.93z"/>
<path class="st1" d="M56.57,59.93h-2.4c-0.66,0-1.19,0.53-1.19,1.2c0,0.66,0.53,1.19,1.19,1.19h2.4c0.66,0,1.2-0.53,1.2-1.19
	C57.77,60.46,57.23,59.93,56.57,59.93z"/>
<g>
	<circle class="st1" cx="55.37" cy="43.15" r="8.39"/>
	<circle class="st1" cx="55.37" cy="43.15" r="5.99"/>
</g>
<g>
	<circle class="st1" cx="55.37" cy="43.15" r="8.39"/>
	<circle class="st1" cx="55.37" cy="43.15" r="5.99"/>
</g>
<path class="st1" d="M56.57,59.93h-2.4c-0.66,0-1.19,0.53-1.19,1.2c0,0.66,0.53,1.19,1.19,1.19h2.4c0.66,0,1.2-0.53,1.2-1.19
	C57.77,60.46,57.23,59.93,56.57,59.93z"/>
<path class="st1" d="M56.57,59.93h-2.4c-0.66,0-1.19,0.53-1.19,1.2c0,0.66,0.53,1.19,1.19,1.19h2.4c0.66,0,1.2-0.53,1.2-1.19
	C57.77,60.46,57.23,59.93,56.57,59.93z"/>
<g>
	<circle class="st1" cx="55.37" cy="43.15" r="8.39"/>
	<circle class="st1" cx="55.37" cy="43.15" r="5.99"/>
</g>
<g>
	<circle class="st1" cx="55.37" cy="43.15" r="8.39"/>
	<circle class="st1" cx="55.37" cy="43.15" r="5.99"/>
</g>
<path class="st1" d="M56.57,59.93h-2.4c-0.66,0-1.19,0.53-1.19,1.2c0,0.66,0.53,1.19,1.19,1.19h2.4c0.66,0,1.2-0.53,1.2-1.19
	C57.77,60.46,57.23,59.93,56.57,59.93z"/>
<path class="st1" d="M56.57,59.93h-2.4c-0.66,0-1.19,0.53-1.19,1.2c0,0.66,0.53,1.19,1.19,1.19h2.4c0.66,0,1.2-0.53,1.2-1.19
	C57.77,60.46,57.23,59.93,56.57,59.93z"/>
<g>
	<circle class="st1" cx="55.37" cy="43.15" r="8.39"/>
	<circle class="st1" cx="55.37" cy="43.15" r="5.99"/>
</g>
<g>
	<circle class="st1" cx="55.37" cy="43.15" r="8.39"/>
	<circle class="st1" cx="55.37" cy="43.15" r="5.99"/>
</g>
<path class="st1" d="M56.57,59.93h-2.4c-0.66,0-1.19,0.53-1.19,1.2c0,0.66,0.53,1.19,1.19,1.19h2.4c0.66,0,1.2-0.53,1.2-1.19
	C57.77,60.46,57.23,59.93,56.57,59.93z"/>
<path class="st1" d="M56.57,59.93h-2.4c-0.66,0-1.19,0.53-1.19,1.2c0,0.66,0.53,1.19,1.19,1.19h2.4c0.66,0,1.2-0.53,1.2-1.19
	C57.77,60.46,57.23,59.93,56.57,59.93z"/>
<g>
	<circle class="st1" cx="55.37" cy="43.15" r="8.39"/>
	<circle class="st1" cx="55.37" cy="43.15" r="5.99"/>
</g>
<g>
	<circle class="st1" cx="55.37" cy="43.15" r="8.39"/>
	<circle class="st1" cx="55.37" cy="43.15" r="5.99"/>
</g>
<path d="M56.57,59.93h-2.4c-0.66,0-1.19,0.53-1.19,1.2c0,0.66,0.53,1.19,1.19,1.19h2.4c0.66,0,1.2-0.53,1.2-1.19
	C57.77,60.46,57.23,59.93,56.57,59.93z"/>
<circle class="st1" cx="54.93" cy="43.14" r="6.76"/>
<path class="st13" d="M55.15,46.26c-0.23,0.23-0.54,0.35-0.85,0.35c-0.31,0-0.61-0.12-0.85-0.35l-2.4-2.4
	c-0.47-0.47-0.47-1.23,0-1.69s1.23-0.47,1.69,0l1.55,1.55l3.95-3.95c0.47-0.47,1.23-0.47,1.69,0s0.47,1.23,0,1.69"/>
</svg>
