<?xml version="1.0" encoding="utf-8"?>
<!-- Generator: Adobe Illustrator 27.7.0, SVG Export Plug-In . SVG Version: 6.00 Build 0)  -->
<svg version="1.1" id="Layer_1" xmlns="http://www.w3.org/2000/svg" xmlns:xlink="http://www.w3.org/1999/xlink" x="0px" y="0px"
	 viewBox="0 0 80 80" style="enable-background:new 0 0 80 80;" xml:space="preserve">
<style type="text/css">
	.st0{fill:#101010;}
	.st1{fill:#FF0000;}
	.st2{fill:url(#SVGID_1_);}
	.st3{fill:url(#SVGID_00000122710525463761129390000001884685009351827134_);}
	.st4{fill:url(#SVGID_00000122705819578129515760000006745197395354173092_);}
	.st5{fill:#00A9D9;}
	.st6{fill:url(#SVGID_00000040544630450495585030000012711689346985784738_);}
	.st7{fill:url(#SVGID_00000098933168233739949600000015175600250300240004_);}
	.st8{fill:url(#SVGID_00000117673883403491829020000000935253762678156167_);}
	.st9{fill:url(#SVGID_00000104707708994189615810000010632574435360053148_);}
	.st10{fill:url(#SVGID_00000071559029909663472530000005695740521122095238_);}
	.st11{fill:#457796;}
	.st12{fill:#DE8F32;}
	.st13{fill:#FFFFFF;}
	.st14{fill-rule:evenodd;clip-rule:evenodd;}
	.st15{fill-rule:evenodd;clip-rule:evenodd;fill:#FF0000;}
</style>
<path class="st0" d="M5.26,49.22c0.12-0.55,0.23-1.1,0.35-1.65c0.61-2.79,1.93-5.2,3.93-7.22c4.7-4.74,9.43-9.46,14.15-14.18
	c0.05-0.05,0.11-0.09,0.12-0.09c6.88,6.87,13.74,13.74,20.65,20.64c-0.1,0.1-0.23,0.26-0.38,0.41c-4.51,4.53-9.02,9.06-13.53,13.59
	c-3.36,3.37-7.42,4.87-12.15,4.47c-6.61-0.57-12.1-5.85-12.99-12.42c-0.03-0.23-0.1-0.46-0.15-0.69
	C5.26,51.13,5.26,50.18,5.26,49.22z"/>
<path class="st1" d="M51.76,4.72c1.52,0.33,3.12,0.47,4.55,1.03c5.26,2.07,8.43,5.97,9.26,11.57c0.71,4.8-0.78,8.97-4.17,12.42
	c-4.62,4.69-9.29,9.33-13.94,13.98c-0.07,0.07-0.14,0.12-0.16,0.13c-6.88-6.88-13.75-13.74-20.75-20.74
	c0.17-0.11,0.42-0.23,0.6-0.41c4.39-4.38,8.8-8.74,13.15-13.15c2.76-2.8,6-4.52,9.97-4.75c0.11-0.01,0.23-0.06,0.34-0.09
	C51,4.72,51.38,4.72,51.76,4.72z M39.33,24.43c0.24-0.15,0.79-0.36,1.17-0.73c2.07-1.99,4.11-4.02,6.15-6.04
	c0.9-0.9,0.99-2.06,0.23-2.84c-0.77-0.79-1.92-0.73-2.84,0.16c-0.94,0.91-1.86,1.83-2.79,2.75c-1.18,1.17-2.37,2.33-3.55,3.5
	c-0.6,0.6-0.69,1.34-0.38,2.1C37.63,24.06,38.24,24.4,39.33,24.43z"/>
<path class="st0" d="M70.08,51.15c3.68,4.29,4.51,12.72-1.07,18.61c-5.36,5.65-13.92,5.77-19.18,1.57
	C56.58,64.6,63.34,57.87,70.08,51.15z"/>
<path class="st0" d="M67.22,48.24c-6.75,6.75-13.5,13.5-20.24,20.25c-4-4.9-4.28-13.28,1.19-18.9
	C53.19,44.43,61.95,43.81,67.22,48.24z"/>
<path class="st13" d="M39.33,24.43c-1.1-0.03-1.71-0.37-2.01-1.1c-0.32-0.76-0.23-1.5,0.38-2.1c1.17-1.18,2.36-2.34,3.55-3.5
	c0.93-0.92,1.85-1.84,2.79-2.75c0.92-0.89,2.08-0.95,2.84-0.16c0.76,0.78,0.67,1.95-0.23,2.84c-2.04,2.02-4.08,4.05-6.15,6.04
	C40.12,24.08,39.58,24.28,39.33,24.43z"/>
</svg>
