<?xml version="1.0" encoding="utf-8"?>
<!-- Generator: Adobe Illustrator 27.7.0, SVG Export Plug-In . SVG Version: 6.00 Build 0)  -->
<svg version="1.1" id="Layer_1" xmlns="http://www.w3.org/2000/svg" xmlns:xlink="http://www.w3.org/1999/xlink" x="0px" y="0px"
	 viewBox="0 0 80 80" style="enable-background:new 0 0 80 80;" xml:space="preserve">
<style type="text/css">
	.st0{fill:#101010;}
	.st1{fill:#FF0000;}
	.st2{fill:url(#SVGID_1_);}
	.st3{fill:url(#SVGID_00000126307512660748389340000005901712762324758416_);}
	.st4{fill:url(#SVGID_00000155146467647323132370000002018572355927406776_);}
	.st5{fill:#00A9D9;}
	.st6{fill:url(#SVGID_00000008863473471356062110000010833730284228409505_);}
	.st7{fill:url(#SVGID_00000125596483835123522390000011768048184742681770_);}
	.st8{fill:url(#SVGID_00000096775415002201492740000005999810443735011260_);}
	.st9{fill:url(#SVGID_00000096773457715639598510000015985643615347779229_);}
	.st10{fill:url(#SVGID_00000114062368944749884450000002002011614911328139_);}
	.st11{fill:#457796;}
	.st12{fill:#DE8F32;}
	.st13{fill:#FFFFFF;}
	.st14{fill-rule:evenodd;clip-rule:evenodd;}
	.st15{fill-rule:evenodd;clip-rule:evenodd;fill:#FF0000;}
</style>
<g>
	<path class="st5" d="M17.88,27.13c-0.35-2.27-0.76-4.42-1-6.59c-0.32-2.89-0.26-5.78,0.62-8.58c1.42-4.52,4.66-6.36,9.27-5.29
		c3.6,0.83,6.65,2.74,9.52,4.96c1.18,0.91,2.29,1.91,3.43,2.87c1.44-1.19,2.83-2.43,4.3-3.54c2.7-2.03,5.58-3.75,8.95-4.43
		c4.19-0.84,7.2,0.82,8.66,4.84c1.23,3.37,1.21,6.86,0.79,10.37c-0.22,1.79-0.57,3.55-0.87,5.42c0.27,0.09,0.58,0.19,0.89,0.29
		c3.76,1.17,7.36,2.68,10.49,5.13c0.8,0.63,1.56,1.35,2.23,2.11c2.65,2.99,2.74,6.3,0.28,9.45c-1.97,2.51-4.58,4.19-7.42,5.51
		c-1.83,0.85-3.75,1.52-5.65,2.22c-0.54,0.2-0.74,0.36-0.59,0.99c0.81,3.53,1.3,7.11,0.87,10.73c-0.15,1.26-0.39,2.53-0.78,3.74
		c-1.48,4.61-4.91,6.46-9.61,5.23c-3.63-0.94-6.68-2.95-9.55-5.27c-0.97-0.78-1.89-1.63-2.85-2.47c-1.26,1.05-2.47,2.13-3.77,3.12
		c-2.94,2.23-6.08,4.09-9.78,4.77c-4.18,0.77-7.2-0.93-8.65-4.92c-1.1-3.02-1.15-6.15-0.81-9.29c0.23-2.06,0.63-4.1,0.97-6.24
		c-0.48-0.15-1-0.31-1.52-0.48c-3.84-1.29-7.5-2.94-10.54-5.7c-0.89-0.81-1.71-1.76-2.37-2.77c-1.68-2.56-1.6-5.18,0.12-7.72
		c1.69-2.49,4.07-4.18,6.71-5.45c2.17-1.04,4.46-1.83,6.7-2.72C17.25,27.31,17.57,27.23,17.88,27.13z M39.72,51.54
		c0-0.01,0-0.02,0-0.02c2.05,0,4.1-0.01,6.16,0c0.53,0,0.87-0.2,1.13-0.67c2.02-3.54,4.06-7.07,6.1-10.59
		c0.26-0.45,0.28-0.85,0.01-1.31c-2.05-3.49-4.08-6.99-6.1-10.5c-0.28-0.49-0.65-0.7-1.2-0.7c-4.08,0.01-8.15-0.02-12.23,0.03
		c-0.38,0-0.91,0.33-1.1,0.66c-2.08,3.51-4.09,7.05-6.14,10.57c-0.25,0.43-0.26,0.8-0.01,1.23c2.07,3.54,4.11,7.1,6.2,10.63
		c0.19,0.33,0.73,0.63,1.11,0.64C35.67,51.57,37.69,51.54,39.72,51.54z M18.73,49.24c0.1-0.17,0.16-0.26,0.2-0.36
		c1.13-2.92,2.27-5.83,3.36-8.77c0.12-0.33,0.04-0.81-0.09-1.16c-1.02-2.7-2.07-5.38-3.11-8.07c-0.09-0.22-0.19-0.44-0.3-0.7
		c-3.73,1.1-7.27,2.43-10.31,4.81c-0.74,0.58-1.42,1.25-2.01,1.98c-1.43,1.8-1.44,3.29-0.07,5.15c0.42,0.58,0.92,1.12,1.45,1.59
		C10.97,46.49,14.74,47.99,18.73,49.24z M37.53,62.63c-2.1-2.66-4.11-5.24-6.15-7.79c-0.16-0.2-0.51-0.31-0.79-0.35
		c-2.53-0.36-5.06-0.65-7.58-1.03c-2.01-0.31-2.02-0.35-2.41,1.62c-0.7,3.59-1.12,7.19-0.2,10.81c0.84,3.3,2.61,4.36,5.92,3.61
		c0.05-0.01,0.11-0.03,0.16-0.04c3.19-0.81,5.88-2.56,8.42-4.56C35.84,64.15,36.71,63.34,37.53,62.63z M58.53,52.98
		c-0.3,0.05-0.54,0.1-0.78,0.14c-2.6,0.41-5.2,0.87-7.81,1.19c-1.08,0.13-1.82,0.47-2.49,1.41c-1.65,2.32-3.47,4.52-5.3,6.86
		c0.78,0.69,1.58,1.45,2.43,2.14c2.57,2.1,5.29,3.97,8.57,4.78c3.06,0.76,4.88-0.17,5.69-3.21c0.5-1.85,0.68-3.82,0.73-5.74
		C59.66,58.01,59.21,55.49,58.53,52.98z M21.07,26.25c0.17,0,0.26,0.01,0.33,0c3.07-0.48,6.14-0.94,9.2-1.46
		c0.33-0.06,0.68-0.32,0.91-0.59c1.85-2.25,3.67-4.52,5.5-6.78c0.15-0.19,0.3-0.38,0.46-0.59c-2.21-2.09-4.53-3.93-7.15-5.37
		c-1.67-0.91-3.39-1.65-5.31-1.86c-2.08-0.22-3.34,0.49-4.15,2.42c-0.29,0.69-0.51,1.41-0.65,2.14
		C19.48,18.25,20.14,22.23,21.07,26.25z M58.39,26.25c0.86-3.43,1.35-6.89,0.96-10.39c-0.17-1.51-0.66-3.02-1.22-4.45
		c-0.55-1.4-1.8-2.05-3.3-1.88c-1.12,0.13-2.25,0.37-3.3,0.75c-2.63,0.96-4.9,2.57-7.04,4.34c-0.84,0.7-1.65,1.45-2.44,2.15
		c1.69,2.1,3.41,4.03,4.87,6.14c0.95,1.37,1.99,2.01,3.67,2.16C53.18,25.29,55.73,25.83,58.39,26.25z M60.78,30.24
		c-1.25,3.07-2.45,5.99-3.61,8.92c-0.11,0.28-0.04,0.7,0.08,1c0.74,1.8,1.53,3.57,2.26,5.36c0.47,1.15,0.85,2.33,1.3,3.56
		c1.04-0.36,2.02-0.66,2.97-1.03c3.1-1.2,6.07-2.62,8.44-5.03c2.42-2.45,2.43-4.51-0.02-6.89C68.98,33.02,64.89,31.53,60.78,30.24z
		 M55.21,43.27c-1.54,2.67-2.98,5.18-4.53,7.87c2.44-0.42,4.69-0.8,7.08-1.21C56.88,47.63,56.07,45.52,55.21,43.27z M21.83,50.07
		c2.4,0.38,4.6,0.73,6.97,1.11c-1.55-2.68-2.99-5.15-4.52-7.79C23.46,45.64,22.68,47.76,21.83,50.07z M39.85,60.31
		c1.51-1.85,2.91-3.58,4.43-5.45c-3.08,0-5.9,0-8.99,0C36.86,56.74,38.3,58.46,39.85,60.31z M57.61,29.37
		c-2.38-0.41-4.56-0.78-6.91-1.19c1.55,2.66,2.96,5.09,4.49,7.71C56.01,33.65,56.77,31.61,57.61,29.37z M44.21,24.41
		c-1.53-1.84-2.95-3.55-4.46-5.37c-1.54,1.84-2.96,3.54-4.49,5.37C38.32,24.41,41.15,24.41,44.21,24.41z M24.27,35.85
		c1.46-2.47,2.83-4.8,4.21-7.13c0.07-0.11,0.11-0.23,0.27-0.55c-2.36,0.41-4.54,0.78-6.86,1.18C22.7,31.57,23.45,33.62,24.27,35.85z
		"/>
	<path class="st5" d="M46.4,39.57c-0.01,3.68-2.99,6.65-6.69,6.65c-3.69,0-6.68-2.99-6.68-6.67c0-3.67,3-6.65,6.7-6.65
		C43.42,32.9,46.41,35.89,46.4,39.57z"/>
</g>
</svg>
