<?xml version="1.0" encoding="utf-8"?>
<!-- Generator: Adobe Illustrator 27.7.0, SVG Export Plug-In . SVG Version: 6.00 Build 0)  -->
<svg version="1.1" id="Layer_1" xmlns="http://www.w3.org/2000/svg" xmlns:xlink="http://www.w3.org/1999/xlink" x="0px" y="0px"
	 viewBox="0 0 80 80" style="enable-background:new 0 0 80 80;" xml:space="preserve">
<style type="text/css">
	.st0{fill:#101010;}
	.st1{fill:#FF0000;}
	.st2{fill:url(#SVGID_1_);}
	.st3{fill:url(#SVGID_00000119080595965407080780000009082231029882647427_);}
	.st4{fill:url(#SVGID_00000119834121342073893290000005328517582306255779_);}
	.st5{fill:#00A9D9;}
	.st6{fill:url(#SVGID_00000034066181323305641910000000398416268252590474_);}
	.st7{fill:url(#SVGID_00000032625216260749444510000007567137157178944421_);}
	.st8{fill:url(#SVGID_00000053506227560108170930000013357482747839113649_);}
	.st9{fill:url(#SVGID_00000174602353529710413370000004235076581547848327_);}
	.st10{fill:url(#SVGID_00000069370351950338254130000005121714287399349423_);}
	.st11{fill:#457796;}
	.st12{fill:#DE8F32;}
	.st13{fill:#FFFFFF;}
	.st14{fill-rule:evenodd;clip-rule:evenodd;}
	.st15{fill-rule:evenodd;clip-rule:evenodd;fill:#FF0000;}
</style>
<g>
	<path class="st0" d="M28,53.43c-1.84-1.06-3.09-3.04-3.09-5.32c0-9.38,7.63-17.02,17.02-17.02h7.01l0.33-5.45H9.54l2.85,47.09
		c0.07,1.08,0.96,1.92,2.04,1.92h12.53c-1.28-1.71-2.05-3.83-2.05-6.13c0-2.65,1.69-4.91,4.05-5.76c-0.84-1.28-1.32-2.81-1.32-4.45
		c0-1.64,0.49-3.17,1.33-4.45C28.29,53.72,27.92,53.57,28,53.43z"/>
	<path class="st1" d="M29.4,21.56C29.4,21.56,29.4,21.56,29.4,21.56l20.42,0c1.13,0,2.04-0.91,2.04-2.04s-0.91-2.04-2.04-2.04H33.17
		l5.5-8.44h7.06c1.13,0,2.04-0.91,2.04-2.04s-0.91-2.04-2.04-2.04h-8.17c-0.69,0-1.33,0.35-1.71,0.93l-7.56,11.6H8.98
		c-1.13,0-2.04,0.91-2.04,2.04s0.91,2.04,2.04,2.04L29.4,21.56C29.4,21.56,29.4,21.56,29.4,21.56z"/>
	<path class="st0" d="M28.99,48.11c0,1.13,0.91,2.04,2.04,2.04H74.6c1.13,0,2.04-0.91,2.04-2.04c0-7.13-5.8-12.93-12.93-12.93H41.93
		C34.8,35.18,28.99,40.98,28.99,48.11z"/>
	<path d="M35.8,54.24c-2.26,0-4.08,1.83-4.08,4.08s1.83,4.08,4.08,4.08h34.03c2.26,0,4.08-1.83,4.08-4.08s-1.83-4.08-4.08-4.08H35.8
		z"/>
	<path class="st0" d="M74.6,66.49H31.04c-1.13,0-2.04,0.91-2.04,2.04c0,3.38,2.75,6.13,6.13,6.13h35.4c3.38,0,6.13-2.75,6.13-6.13
		C76.64,67.4,75.73,66.49,74.6,66.49z"/>
</g>
</svg>
