<?xml version="1.0" encoding="utf-8"?>
<!-- Generator: Adobe Illustrator 27.7.0, SVG Export Plug-In . SVG Version: 6.00 Build 0)  -->
<svg version="1.1" id="Layer_1" xmlns="http://www.w3.org/2000/svg" xmlns:xlink="http://www.w3.org/1999/xlink" x="0px" y="0px"
	 viewBox="0 0 80 80" style="enable-background:new 0 0 80 80;" xml:space="preserve">
<style type="text/css">
	.st0{fill:#101010;}
	.st1{fill:#FF0000;}
	.st2{fill:url(#SVGID_1_);}
	.st3{fill:url(#SVGID_00000103952647588842644030000001023461438768572064_);}
	.st4{fill:url(#SVGID_00000046334468400358332540000007873685275510529175_);}
	.st5{fill:#00A9D9;}
	.st6{fill:url(#SVGID_00000168074700672456694510000008157822864660301207_);}
	.st7{fill:url(#SVGID_00000050662603990946332230000009722181183581550738_);}
	.st8{fill:url(#SVGID_00000078731814468657457060000008577617707539305897_);}
	.st9{fill:url(#SVGID_00000145029288810236118910000002737108172734904968_);}
	.st10{fill:url(#SVGID_00000149381040724253176700000015682749231815617444_);}
	.st11{fill:#457796;}
	.st12{fill:#DE8F32;}
	.st13{fill:#FFFFFF;}
	.st14{fill-rule:evenodd;clip-rule:evenodd;}
	.st15{fill-rule:evenodd;clip-rule:evenodd;fill:#FF0000;}
</style>
<path class="st1" d="M7.66,20.87h17.03c2.02,0,3.65,1.63,3.65,3.65l0,0V37.9c0,2.02-1.63,3.65-3.65,3.65h0H7.66
	c-2.02,0-3.65-1.63-3.65-3.65l0,0V24.52C4.01,22.51,5.65,20.87,7.66,20.87L7.66,20.87L7.66,20.87z"/>
<circle class="st0" cx="42.94" cy="9.92" r="6.08"/>
<path class="st0" d="M17.39,45.02c0,1.89,0.74,3.7,2.07,5.05h19.77v-5.05c0-0.67-0.54-1.21-1.21-1.21H18.61
	C17.94,43.8,17.39,44.35,17.39,45.02z"/>
<path class="st0" d="M77.89,63.88c-1.22-4.52-5.45-7.56-10.12-7.29c0.19-0.71,0.29-1.44,0.29-2.18c-0.05-2.37-1.25-4.56-3.23-5.87
	c-2.61-1.73-4.57-6.14-4.86-10.77h2.33c2.01,0,3.63-1.62,3.64-3.63v-2.42c-0.01-2.01-1.63-3.63-3.64-3.63h-8.32
	c-7.03-2.03-9.15-4.36-10.41-5.76c-0.03-0.03-0.05-0.06-0.08-0.08c0.26-1.91-0.73-3.78-2.45-4.64c-2.21-1.05-4.85-0.12-5.9,2.09
	c-0.14,0.3-0.25,0.62-0.33,0.95l-3.49,16.68c-0.41,1.96,0.85,3.88,2.81,4.29c0.11,0.02,0.23,0.04,0.35,0.05l5.98,0.66
	c0.64,0.07,1.11,0.63,1.08,1.27l-0.94,15.94c-2-1.75-2.72-4.55-1.8-7.05H20.21c-1.96,3.25-5.1,9.34-3.83,13.3
	c0.48,1.51,1.66,2.7,3.17,3.19c0.55,0.17,1.12,0.23,1.69,0.18c0.3,4.29,4.03,7.53,8.32,7.23c3.87-0.27,6.96-3.35,7.23-7.23l20.85,0
	c0.41-0.02,0.79-0.21,1.06-0.51c0.15,0.72,0.39,1.41,0.71,2.07c0.29,0.6,1.01,0.86,1.61,0.57c0.19-0.09,0.35-0.23,0.47-0.4
	c0.14-0.2,0.3-0.4,0.46-0.6c0.65,4.25,4.63,7.16,8.88,6.51s7.16-4.63,6.51-8.88c-0.05-0.32-0.12-0.63-0.2-0.94
	c0.65-0.07,1.13-0.65,1.06-1.31C78.16,65.08,78.05,64.47,77.89,63.88L77.89,63.88z M29.01,74c-2.75,0-5.06-2.09-5.33-4.82l10.67,0
	C34.07,71.91,31.76,74,29.01,74L29.01,74z M52.59,60.71h-4.73l2.09-19.75c0.17-1.65-0.79-3.2-2.34-3.78l-5.96-2.22
	c-0.57-0.21-0.89-0.81-0.76-1.4l0.91-3.91c3.1,2.47,6.84,4.01,10.79,4.42L52.59,60.71z M70.34,74.36c-2.94,0.39-5.64-1.68-6.02-4.62
	c-0.06-0.43-0.06-0.86-0.01-1.29l0.37-0.46c2.79-1.73,6.1-2.38,9.34-1.84l0.29,0.22c1.48,2.56,0.6,5.83-1.96,7.31
	C71.72,74.04,71.04,74.27,70.34,74.36z"/>
<path d="M77.54,69.2c0,4.35-3.52,7.86-7.86,7.86c-3.95,0-7.23-2.91-7.78-6.72c0.46-0.55,1.21-1.34,2.32-2.09
	c-0.01,0.15-0.02,0.31-0.02,0.47c0,3.1,2.38,5.61,5.32,5.61s5.32-2.51,5.32-5.61c0-1.01-0.25-1.95-0.7-2.77
	c1.2,0.05,2.07,0.18,2.72,0.28C77.27,67.19,77.54,68.09,77.54,69.2z"/>
<path d="M36.87,69.12c-0.01,0.54-0.08,1.08-0.24,1.66c-1.14,4.19-5.46,6.65-9.65,5.51c-3.36-0.91-5.61-3.86-5.77-7.17h2.64
	c0.35,2.71,2.52,4.8,5.14,4.8c2.63,0,4.8-2.09,5.15-4.8H36.87z"/>
<path d="M78.65,67.05c0,0-0.04-0.16-0.11-0.42C78.77,66.86,78.65,67.05,78.65,67.05z"/>
</svg>
