<?xml version="1.0" encoding="utf-8"?>
<!-- Generator: Adobe Illustrator 27.7.0, SVG Export Plug-In . SVG Version: 6.00 Build 0)  -->
<svg version="1.1" id="Layer_1" xmlns="http://www.w3.org/2000/svg" xmlns:xlink="http://www.w3.org/1999/xlink" x="0px" y="0px"
	 viewBox="0 0 80 80" style="enable-background:new 0 0 80 80;" xml:space="preserve">
<style type="text/css">
	.st0{fill:#101010;}
	.st1{fill:#FF0000;}
	.st2{fill:url(#SVGID_1_);}
	.st3{fill:url(#SVGID_00000144299635128466818480000007316094475496068522_);}
	.st4{fill:url(#SVGID_00000124156876418120672370000002937540825073808257_);}
	.st5{fill:#00A9D9;}
	.st6{fill:url(#SVGID_00000173844724410405765110000016064774417026996866_);}
	.st7{fill:url(#SVGID_00000173132481321870558290000008286461601360863622_);}
	.st8{fill:url(#SVGID_00000037691942650317799770000011047342075105645500_);}
	.st9{fill:url(#SVGID_00000094616875084546833850000000070966723311215514_);}
	.st10{fill:url(#SVGID_00000152224330326808604620000016927641068779167107_);}
	.st11{fill:#457796;}
	.st12{fill:#DE8F32;}
	.st13{fill:#FFFFFF;}
	.st14{fill-rule:evenodd;clip-rule:evenodd;}
	.st15{fill-rule:evenodd;clip-rule:evenodd;fill:#FF0000;}
</style>
<g id="Icon">
	<path class="st14" d="M25.16,51.24l-4.51,4.46c-2.99-1.45-6.69-0.95-9.18,1.52l-6.99,6.9c-3.16,3.13-3.2,8.23-0.07,11.4
		c3.13,3.16,8.23,3.2,11.4,0.07l6.99-6.9c2.49-2.46,3.04-6.16,1.63-9.16l4.51-4.46c5.1,4.3,11.67,6.92,18.86,6.96
		c16.31,0.1,29.63-13.06,29.73-29.36S64.47,3.03,48.16,2.93S18.54,15.99,18.44,32.29C18.39,39.48,20.92,46.08,25.16,51.24
		L25.16,51.24z M30.82,49.49c4.35,4.38,10.36,7.11,17.01,7.16c13.34,0.08,24.24-10.68,24.32-24.03C72.24,19.28,61.47,8.38,48.13,8.3
		C34.79,8.22,23.89,18.98,23.81,32.33c-0.04,6.65,2.62,12.7,6.95,17.1c0.01,0.01,0.02,0.02,0.03,0.04
		C30.8,49.47,30.81,49.48,30.82,49.49L30.82,49.49z"/>
</g>
<path class="st14" d="M55.18,20.51l-6.65-4.24c-0.91-0.58-2.09-0.56-2.98,0.06L29.65,27.4c-1.22,0.85-1.52,2.52-0.67,3.74
	c0.85,1.22,2.52,1.52,3.74,0.67l1.18-0.82l0.3,14.68c0.03,1.48,1.26,2.66,2.74,2.63L45,48.13l-0.21-10.29
	c-0.03-1.48,1.15-2.71,2.63-2.74s2.71,1.15,2.74,2.63l0.21,10.29l8.06-0.16c1.48-0.03,2.66-1.26,2.63-2.74l-0.3-14.68l1.21,0.77
	c1.25,0.8,2.91,0.43,3.71-0.82c0.8-1.25,0.43-2.91-0.82-3.71l-4.23-2.7l-0.12-5.72c-0.03-1.48-1.26-2.66-2.74-2.63
	c-1.48,0.03-2.66,1.26-2.63,2.74L55.18,20.51z"/>
<path class="st15" d="M23.23,69.41l-7.6,6.75c-3.33,2.96-8.47,2.65-11.43-0.68l-0.59-0.67c-2.96-3.33-2.65-8.47,0.68-11.43l7.6-6.75
	c3.33-2.96,8.47-2.65,11.43,0.68l0.59,0.67C26.87,61.31,26.56,66.46,23.23,69.41z"/>
</svg>
