<?xml version="1.0" encoding="utf-8"?>
<!-- Generator: Adobe Illustrator 27.7.0, SVG Export Plug-In . SVG Version: 6.00 Build 0)  -->
<svg version="1.1" id="Layer_1" xmlns="http://www.w3.org/2000/svg" xmlns:xlink="http://www.w3.org/1999/xlink" x="0px" y="0px"
	 viewBox="0 0 80 80" style="enable-background:new 0 0 80 80;" xml:space="preserve">
<style type="text/css">
	.st0{fill:#101010;}
	.st1{fill:#FF0000;}
	.st2{fill:url(#SVGID_1_);}
	.st3{fill:url(#SVGID_00000096739157984241811430000000240896212379932339_);}
	.st4{fill:url(#SVGID_00000037657533322580410700000010518031925062355896_);}
	.st5{fill:#00A9D9;}
	.st6{fill:url(#SVGID_00000053534587367160417750000013019500894931118775_);}
	.st7{fill:url(#SVGID_00000057134574960926542620000000599288518838720702_);}
	.st8{fill:url(#SVGID_00000060738725846218379030000011902309948145914024_);}
	.st9{fill:url(#SVGID_00000066477170646757376250000002927954883480434583_);}
	.st10{fill:url(#SVGID_00000134213187364871785390000003616101214423701154_);}
	.st11{fill:#457796;}
	.st12{fill:#DE8F32;}
	.st13{fill:#FFFFFF;}
	.st14{fill-rule:evenodd;clip-rule:evenodd;}
	.st15{fill-rule:evenodd;clip-rule:evenodd;fill:#FF0000;}
</style>
<g>
	<g>
		<path class="st0" d="M34.68,21.92c0.45-0.77,0.37-1.32-0.05-2.02c-1.51-2.55-2.96-5.15-4.47-7.7c-0.63-1.07-0.87-2.19-0.43-3.34
			c0.17-0.46,0.66-2.05,2.6-2.43c1.88-0.37,3.29,0.84,3.82,1.8c1,1.8,2.06,3.57,3.2,5.52c0.93-1.62,1.8-3.13,2.67-4.63
			c1.31-2.25,3.6-3.16,5.4-2.15c1.91,1.07,2.24,3.24,0.84,5.68c-6.79,11.8-13.58,23.6-20.37,35.4c-0.05,0.09-0.11,0.18-0.17,0.27
			h-8.3C24.5,39.52,29.57,30.7,34.68,21.92z"/>
	</g>
	<path class="st1" d="M50.06,56.73c-13.89-0.05-27.78-0.04-41.66-0.01c-1.15,0-3.48-0.67-3.93-2.79c-0.21-0.99-0.02-2,0.56-2.83
		c0.46-0.65,1.01-1.19,1.92-1.37c2.13-0.18,4.26-0.18,6.39-0.16c1.39,0.01,2.79,0.04,4.18,0.02l9.82,0.04v0.01h1.69l4.07,0.01
		l2.48,0.01c2.72,0.01,5.44,0,8.16-0.06c4.71-0.11,6.65,3.18,7.5,5.47C51.61,56.07,51.48,56.73,50.06,56.73z"/>
	<g>
		<path class="st0" d="M69,72.29c-1.66,1-3.91,0.45-4.98-1.33c-2.72-4.49-5.37-9.02-8.05-13.54c-3.95-6.66-7.89-13.32-11.84-19.98
			c-2.11-3.56-1.97-7.28-0.78-11.05c0.21-0.69,0.55-1.47,1.41-1.58c0.94-0.13,1.24,0.68,1.6,1.31c3.67,6.35,7.34,12.71,11,19.07
			l0.15,0.25c0.78,1.37,1.57,2.73,2.36,4.1h0.01l4.16,7.16c0.81,1.4,1.6,2.76,2.37,4.1l0.06,0.11c0.76,1.31,1.51,2.59,2.25,3.88
			c0.5,0.87,1.02,1.73,1.49,2.63C71.16,69.27,70.64,71.31,69,72.29z"/>
	</g>
	<path class="st1" d="M75.54,55.04c-1.06,1.34-2.54,1.79-4.41,1.69c-1.88-0.11-3.77-0.06-5.81-0.04l-4.19-7.15
		c3.5,0.01,7.01,0.02,10.51,0.05c0.64,0,1.27,0.09,1.9,0.14c0.96,0.18,1.51,0.79,1.97,1.48C76.5,52.7,75.74,54.78,75.54,55.04z"/>
	<g>
		<path class="st0" d="M20.45,57.45c-0.27-0.08-2.54,0.18-3.31,0.43c-1.9,0.6-3.67,1.6-4.96,3.36c-1.37,1.86-2.44,3.96-3.51,6.02
			c-0.92,1.75-0.27,3.74,1.34,4.69c1.64,0.97,3.77,0.46,4.87-1.22c0.67-1.02,1.26-2.08,1.87-3.13c1.49-2.56,3.04-5.09,4.43-7.7
			C21.83,58.65,21.54,57.76,20.45,57.45z"/>
	</g>
</g>
</svg>
