<?xml version="1.0" encoding="utf-8"?>
<!-- Generator: Adobe Illustrator 27.7.0, SVG Export Plug-In . SVG Version: 6.00 Build 0)  -->
<svg version="1.1" id="Layer_1" xmlns="http://www.w3.org/2000/svg" xmlns:xlink="http://www.w3.org/1999/xlink" x="0px" y="0px"
	 viewBox="0 0 80 80" style="enable-background:new 0 0 80 80;" xml:space="preserve">
<style type="text/css">
	.st0{fill:#101010;}
	.st1{fill:#FF0000;}
	.st2{fill:url(#SVGID_1_);}
	.st3{fill:url(#SVGID_00000150060037622988569250000014486051478194602641_);}
	.st4{fill:url(#SVGID_00000124853954559765802950000010201935327738409857_);}
	.st5{fill:#00A9D9;}
	.st6{fill:url(#SVGID_00000171718415599174016040000007356308395958183822_);}
	.st7{fill:url(#SVGID_00000183207984612121927950000008019565461539422603_);}
	.st8{fill:url(#SVGID_00000010270513884612200940000013367288387783612553_);}
	.st9{fill:url(#SVGID_00000128481881822776683610000016810471850017869209_);}
	.st10{fill:url(#SVGID_00000016779968807858440690000001435404215909326208_);}
	.st11{fill:#457796;}
	.st12{fill:#DE8F32;}
	.st13{fill:#FFFFFF;}
	.st14{fill-rule:evenodd;clip-rule:evenodd;}
	.st15{fill-rule:evenodd;clip-rule:evenodd;fill:#FF0000;}
</style>
<g>
	<g>
		<path class="st0" d="M63.26,53.8H28.82c-1.12,0-1.83-0.91-1.56-2l0.58-2.35c1.17-2.64-0.28-6.42-0.28-6.42S20.05,18.39,19.91,18
			l-1.6-4.82L17.2,9.84c-0.4-1.17-1.49-1.96-2.73-1.96H5.86c-1.58,0-2.87,1.29-2.87,2.87c0,1.59,1.29,2.87,2.87,2.87h5.11
			c0.85,0,1.62,0.55,1.89,1.36l9.46,28.4c0.42,1.26,0.47,2.61,0.15,3.9l-0.78,3.13c-1.14,4.57,2.42,9.13,7.13,9.13h34.44
			c1.59,0,2.87-1.28,2.87-2.87C66.13,55.09,64.85,53.8,63.26,53.8z"/>
		<circle class="st1" cx="27.19" cy="67.84" r="5.74"/>
		<circle class="st1" cx="61.63" cy="67.84" r="5.74"/>
	</g>
	<path class="st0" d="M72.62,22.78l-7.65,22.96c-0.4,1.17-1.49,1.96-2.73,1.96c0,0-26.11,0.06-28.7,0s-3.3-2.17-3.3-2.17
		l-7.17-24.84c0,0-0.26-1.76,1.67-1.69s45.15,0,45.15,0C71.85,19,73.24,20.92,72.62,22.78z"/>
</g>
</svg>
