<?xml version="1.0" encoding="utf-8"?>
<!-- Generator: Adobe Illustrator 27.7.0, SVG Export Plug-In . SVG Version: 6.00 Build 0)  -->
<svg version="1.1" id="Layer_1" xmlns="http://www.w3.org/2000/svg" xmlns:xlink="http://www.w3.org/1999/xlink" x="0px" y="0px"
	 viewBox="0 0 80 80" style="enable-background:new 0 0 80 80;" xml:space="preserve">
<style type="text/css">
	.st0{fill:#101010;}
	.st1{fill:#FF0000;}
	.st2{fill:url(#SVGID_1_);}
	.st3{fill:url(#SVGID_00000172418073342382250570000004830189817534078092_);}
	.st4{fill:url(#SVGID_00000147183258463419863740000007072211603486056866_);}
	.st5{fill:#00A9D9;}
	.st6{fill:url(#SVGID_00000053536049364369710010000015728217214171489972_);}
	.st7{fill:url(#SVGID_00000026870911934459006860000005991141125143748490_);}
	.st8{fill:url(#SVGID_00000088850653676834214130000004364769703896178590_);}
	.st9{fill:url(#SVGID_00000101099888751432758250000004834184701520833181_);}
	.st10{fill:url(#SVGID_00000113344261196592549440000011612043984770367119_);}
	.st11{fill:#457796;}
	.st12{fill:#DE8F32;}
	.st13{fill:#FFFFFF;}
	.st14{fill-rule:evenodd;clip-rule:evenodd;}
	.st15{fill-rule:evenodd;clip-rule:evenodd;fill:#FF0000;}
</style>
<path d="M70.36,24.64c-9.78-16.08-24.53-4.89-24.53-4.89c-0.95,0.72-2.72,1.31-3.92,1.32h-3.94c-1.2,0-2.97-0.59-3.92-1.32
	c0,0-14.75-11.19-24.53,4.9c-9.79,16.07-5.85,33.58-5.85,33.58c0.69,4.28,2.97,7.14,7.27,6.78c4.28-0.35,13.58-11.54,13.58-11.54
	c0.77-0.92,2.38-1.67,3.58-1.67l23.67-0.01c1.2,0,2.81,0.75,3.58,1.68c0,0,9.3,11.18,13.59,11.54c4.29,0.36,6.58-2.5,7.26-6.79
	C76.2,58.22,80.15,40.72,70.36,24.64z M23.36,46.72c-6.95,0-12.58-5.63-12.58-12.57c0-6.95,5.63-12.58,12.58-12.58
	c6.94,0,12.57,5.63,12.57,12.58C35.93,41.09,30.3,46.72,23.36,46.72z M57.19,46.72c-6.94,0-12.57-5.63-12.57-12.57
	c0-6.95,5.63-12.58,12.57-12.58s12.57,5.63,12.57,12.58C69.76,41.09,64.13,46.72,57.19,46.72z"/>
<path class="st13" d="M23.36,21.57c-6.95,0-12.58,5.63-12.58,12.58c0,6.94,5.63,12.57,12.58,12.57c6.94,0,12.57-5.63,12.57-12.57
	C35.93,27.2,30.3,21.57,23.36,21.57z M31.04,37.73h-5.08v4.89c0,0-1.07,0.82-2.73,0.8c-1.67-0.02-2.42-0.89-2.42-0.89v-4.8h-4.79
	c0,0-0.6-0.61-0.76-2.23c-0.16-1.61,0.66-2.92,0.66-2.92H21V27.5c0,0,1.04-0.56,2.55-0.51c1.5,0.04,2.6,0.61,2.6,0.61l-0.02,4.98
	h4.8c0,0,0.83,1.07,0.9,2.37S31.04,37.73,31.04,37.73z"/>
<path class="st1" d="M31.83,34.95c0.07,1.3-0.79,2.78-0.79,2.78h-5.08v4.89c0,0-1.07,0.82-2.73,0.8c-1.67-0.02-2.42-0.89-2.42-0.89
	v-4.8h-4.79c0,0-0.6-0.61-0.76-2.23c-0.16-1.61,0.66-2.92,0.66-2.92H21V27.5c0,0,1.04-0.56,2.55-0.51c1.5,0.04,2.6,0.61,2.6,0.61
	l-0.02,4.98h4.8C30.93,32.58,31.76,33.65,31.83,34.95z"/>
<path class="st13" d="M57.19,21.57c-6.94,0-12.57,5.63-12.57,12.58c0,6.94,5.63,12.57,12.57,12.57s12.57-5.63,12.57-12.57
	C69.76,27.2,64.13,21.57,57.19,21.57z M54.33,43.31c-2.23,0-4.02-1.8-4.02-4.02c0-2.23,1.79-4.02,4.02-4.02
	c2.21,0,4.02,1.79,4.02,4.02C58.35,41.51,56.54,43.31,54.33,43.31z M54.33,32.25c-2.23,0-4.02-1.8-4.02-4.02
	c0-2.22,1.79-4.01,4.02-4.01c2.21,0,4.02,1.79,4.02,4.01C58.35,30.46,56.54,32.25,54.33,32.25z M64.34,38.19
	c-2.23,0-4.02-1.8-4.02-4.02c0-2.23,1.79-4.02,4.02-4.02c2.21,0,4.01,1.79,4.01,4.02C68.35,36.39,66.55,38.19,64.34,38.19z"/>
<circle class="st1" cx="54.33" cy="39.29" r="4.02"/>
<path class="st1" d="M58.35,28.23c0,2.23-1.81,4.02-4.02,4.02c-2.23,0-4.02-1.8-4.02-4.02c0-2.22,1.79-4.01,4.02-4.01
	C56.54,24.22,58.35,26.01,58.35,28.23z"/>
<path class="st1" d="M68.35,34.17c0,2.22-1.8,4.02-4.01,4.02c-2.23,0-4.02-1.8-4.02-4.02c0-2.23,1.79-4.02,4.02-4.02
	C66.55,30.15,68.35,31.94,68.35,34.17z"/>
</svg>
