<?xml version="1.0" encoding="utf-8"?>
<!-- Generator: Adobe Illustrator 27.7.0, SVG Export Plug-In . SVG Version: 6.00 Build 0)  -->
<svg version="1.1" id="Layer_1" xmlns="http://www.w3.org/2000/svg" xmlns:xlink="http://www.w3.org/1999/xlink" x="0px" y="0px"
	 viewBox="0 0 80 80" style="enable-background:new 0 0 80 80;" xml:space="preserve">
<style type="text/css">
	.st0{fill:#101010;}
	.st1{fill:#FF0000;}
	.st2{fill:url(#SVGID_1_);}
	.st3{fill:url(#SVGID_00000034057526155666656230000013897756895254497211_);}
	.st4{fill:url(#SVGID_00000129918882716943833840000016073022748004194470_);}
	.st5{fill:#00A9D9;}
	.st6{fill:url(#SVGID_00000153685890698938126200000018098915348384191903_);}
	.st7{fill:url(#SVGID_00000152971030406102474520000006459725825251850895_);}
	.st8{fill:url(#SVGID_00000121970571947740169640000017688086913782269589_);}
	.st9{fill:url(#SVGID_00000147929203874669977180000005547968784979607484_);}
	.st10{fill:url(#SVGID_00000132048598736568272050000014495680243830782389_);}
	.st11{fill:#457796;}
	.st12{fill:#DE8F32;}
	.st13{fill:#FFFFFF;}
	.st14{fill-rule:evenodd;clip-rule:evenodd;}
	.st15{fill-rule:evenodd;clip-rule:evenodd;fill:#FF0000;}
</style>
<g>
	<path d="M76.33,24.7l-36-12.7c-0.48-0.17-1.01-0.17-1.49,0l-36,12.7c-0.89,0.32-1.49,1.16-1.5,2.11c0,0.95,0.6,1.8,1.49,2.11
		l36,12.8c0.24,0.09,0.5,0.13,0.75,0.13c0.25,0,0.51-0.04,0.75-0.13l36-12.8c0.89-0.32,1.49-1.16,1.49-2.11
		C77.83,25.86,77.23,25.01,76.33,24.7z"/>
	<path class="st1" d="M72.45,54.6V35.06l-4.48,1.59V54.6c-1.35,0.78-2.26,2.23-2.26,3.9c0,1.67,0.91,3.12,2.26,3.9v11.01
		c0,1.24,1,2.24,2.24,2.24s2.24-1,2.24-2.24V62.41c1.35-0.78,2.26-2.23,2.26-3.9C74.71,56.84,73.8,55.38,72.45,54.6z"/>
	<path d="M39.59,46.33c-0.77,0-1.53-0.13-2.25-0.39l-20.24-7.19v9.86c0,2.41,2.52,4.45,7.48,6.06c4.33,1.4,9.66,2.18,15.01,2.18
		s10.68-0.77,15.01-2.18c4.96-1.61,7.48-3.65,7.48-6.06v-9.86l-20.24,7.19C41.12,46.2,40.36,46.33,39.59,46.33z"/>
</g>
</svg>
