<?xml version="1.0" encoding="utf-8"?>
<!-- Generator: Adobe Illustrator 27.7.0, SVG Export Plug-In . SVG Version: 6.00 Build 0)  -->
<svg version="1.1" id="Layer_1" xmlns="http://www.w3.org/2000/svg" xmlns:xlink="http://www.w3.org/1999/xlink" x="0px" y="0px"
	 viewBox="0 0 80 80" style="enable-background:new 0 0 80 80;" xml:space="preserve">
<style type="text/css">
	.st0{fill:#101010;}
	.st1{fill:#FF0000;}
	.st2{fill:url(#SVGID_1_);}
	.st3{fill:url(#SVGID_00000175291978821691424330000016426030735281448096_);}
	.st4{fill:url(#SVGID_00000132049059179983979290000017308147019129777581_);}
	.st5{fill:#00A9D9;}
	.st6{fill:url(#SVGID_00000103227725531493664500000005072797472202643637_);}
	.st7{fill:url(#SVGID_00000129206984703961010740000016229244327523771578_);}
	.st8{fill:url(#SVGID_00000155862082193839965130000005567171249608792760_);}
	.st9{fill:url(#SVGID_00000159467650849803429660000005909779441697323654_);}
	.st10{fill:url(#SVGID_00000100376764568490255210000002328917246914764164_);}
	.st11{fill:#457796;}
	.st12{fill:#DE8F32;}
	.st13{fill:#FFFFFF;}
	.st14{fill-rule:evenodd;clip-rule:evenodd;}
	.st15{fill-rule:evenodd;clip-rule:evenodd;fill:#FF0000;}
</style>
<g>
	<g>
		<g>
			<path class="st0" d="M48.25,8.7l3.34-5.57c0.38-0.63,0.18-1.46-0.46-1.84c-0.64-0.38-1.46-0.18-1.84,0.46l-3.53,5.88
				c-2.1-0.75-4.35-1.17-6.7-1.17c-2.35,0-4.6,0.43-6.7,1.17l-3.53-5.88c-0.38-0.64-1.2-0.84-1.84-0.46s-0.84,1.2-0.46,1.84
				l3.34,5.57c-6.46,3.34-10.89,10.07-10.89,17.83c0,0.74,0.6,1.34,1.34,1.34H57.8c0.74,0,1.34-0.6,1.34-1.34
				C59.14,18.77,54.71,12.04,48.25,8.7z M21.72,25.19c0.69-8.97,8.2-16.06,17.35-16.06s16.66,7.09,17.35,16.06H21.72z"/>
		</g>
		<path class="st1" d="M48.4,16.31h-1.76c-0.49,0-0.88,0.39-0.88,0.88v1.76c0,0.49,0.39,0.88,0.88,0.88h1.77
			c0.49,0,0.88-0.39,0.88-0.88v-1.76C49.29,16.7,48.89,16.31,48.4,16.31z"/>
		<path class="st1" d="M31.49,16.31h-1.77c-0.49,0-0.88,0.39-0.88,0.88v1.76c0,0.49,0.39,0.88,0.88,0.88h1.77
			c0.49,0,0.88-0.39,0.88-0.88v-1.76C32.37,16.7,31.98,16.31,31.49,16.31z"/>
		<g>
			<path class="st0" d="M57.8,29.2H20.33c-0.74,0-1.34,0.6-1.34,1.34v26.99c0,3.56,2.9,6.46,6.47,6.46h1.56v8.04
				c0,2.95,2.4,5.34,5.35,5.34c2.95,0,5.35-2.4,5.35-5.34V64h2.68v8.04c0,2.95,2.4,5.34,5.35,5.34c2.95,0,5.35-2.4,5.35-5.34V64
				h1.56c3.57,0,6.47-2.9,6.47-6.46V30.54C59.14,29.8,58.54,29.2,57.8,29.2z M56.46,57.53c0,2.09-1.7,3.79-3.79,3.79h-2.9
				c-0.74,0-1.34,0.6-1.34,1.34v9.38c0,1.47-1.2,2.67-2.68,2.67c-1.48,0-2.68-1.2-2.68-2.67v-9.38c0-0.74-0.6-1.34-1.34-1.34h-5.35
				c-0.74,0-1.34,0.6-1.34,1.34v9.38c0,1.47-1.2,2.67-2.68,2.67c-1.48,0-2.68-1.2-2.68-2.67v-9.38c0-0.74-0.6-1.34-1.34-1.34h-2.9
				c-2.09,0-3.79-1.7-3.79-3.79V31.88h34.79V57.53z"/>
		</g>
		<g>
			<path class="st0" d="M65.16,29.2c-2.58,0-4.68,2.1-4.68,4.69v18.72c0,2.59,2.1,4.69,4.68,4.69c2.58,0,4.68-2.1,4.68-4.69V33.89
				C69.84,31.31,67.74,29.2,65.16,29.2z M67.17,52.62c0,1.11-0.9,2.01-2.01,2.01c-1.11,0-2.01-0.9-2.01-2.01V33.89
				c0-1.11,0.9-2.01,2.01-2.01c1.11,0,2.01,0.9,2.01,2.01V52.62z"/>
		</g>
		<g>
			<path class="st0" d="M12.97,29.2c-2.58,0-4.68,2.1-4.68,4.69v18.72c0,2.59,2.1,4.69,4.68,4.69s4.68-2.1,4.68-4.69V33.89
				C17.65,31.31,15.55,29.2,12.97,29.2z M14.98,52.62c0,1.11-0.9,2.01-2.01,2.01s-2.01-0.9-2.01-2.01V33.89
				c0-1.11,0.9-2.01,2.01-2.01s2.01,0.9,2.01,2.01V52.62z"/>
		</g>
	</g>
</g>
<rect x="10" y="31.65" width="5.08" height="24.18"/>
<g>
	<rect x="62.59" y="31.65" class="st0" width="5.08" height="24.18"/>
</g>
</svg>
