<?xml version="1.0" encoding="utf-8"?>
<!-- Generator: Adobe Illustrator 27.7.0, SVG Export Plug-In . SVG Version: 6.00 Build 0)  -->
<svg version="1.1" id="Layer_1" xmlns="http://www.w3.org/2000/svg" xmlns:xlink="http://www.w3.org/1999/xlink" x="0px" y="0px"
	 viewBox="0 0 80 80" style="enable-background:new 0 0 80 80;" xml:space="preserve">
<style type="text/css">
	.st0{fill:#101010;}
	.st1{fill:#FF0000;}
	.st2{fill:url(#SVGID_1_);}
	.st3{fill:url(#SVGID_00000114787763503219039500000017060640705353435570_);}
	.st4{fill:url(#SVGID_00000116916766772028855450000003810556191461594550_);}
	.st5{fill:#00A9D9;}
	.st6{fill:url(#SVGID_00000109023545123329031510000002329144315116816276_);}
	.st7{fill:url(#SVGID_00000010294525887865603810000003289125072785652614_);}
	.st8{fill:url(#SVGID_00000042014121741650936760000009571008804044920475_);}
	.st9{fill:url(#SVGID_00000091724851287983584090000016865987404375816099_);}
	.st10{fill:url(#SVGID_00000107566872245300185210000007863922429020806325_);}
	.st11{fill:#457796;}
	.st12{fill:#DE8F32;}
	.st13{fill:#FFFFFF;}
	.st14{fill-rule:evenodd;clip-rule:evenodd;}
	.st15{fill-rule:evenodd;clip-rule:evenodd;fill:#FF0000;}
</style>
<path class="st11" d="M33.39,77.28c-0.72-0.32-1.5-0.21-2.25-0.28c-3.41-0.3-6.78-0.81-10.09-1.68c-0.16-0.04-0.32-0.11-0.51-0.17
	c0.24-0.36,0.53-0.24,0.81-0.2c6.46,1.02,12.95,1.23,19.47,0.89c4.84-0.25,9.64-0.78,14.34-2.02c2.46-0.65,4.85-1.49,7.06-2.81
	c0.76-0.45,1.46-0.99,2.19-1.7c0.08,0.71-0.17,1.16-0.46,1.58c-0.6,0.89-1.46,1.5-2.37,2.02c-2.54,1.45-5.32,2.23-8.15,2.84
	c-3.47,0.75-6.98,1.18-10.52,1.37c-0.18,0.01-0.41-0.08-0.54,0.14C39.38,77.28,36.38,77.28,33.39,77.28z"/>
<path class="st12" d="M37.42,42.79c-3.33-2.04-6.48-4.29-8.46-7.79c-2.25-3.98-1.85-7.86,1.09-11.46c1.76-2.16,3.92-3.9,6.04-5.68
	c2.37-1.99,4.8-3.91,6.8-6.3c2.02-2.43,3.37-5.12,3.21-8.37c-0.04-0.82-0.18-1.63-0.28-2.49c0.38,0.06,0.47,0.38,0.6,0.6
	c1.56,2.61,1.61,5.39,0.81,8.23c-0.78,2.76-2.43,5-4.35,7.06c-1.7,1.83-3.61,3.44-5.45,5.12c-1.2,1.09-2.35,2.23-3.43,3.44
	c-2.63,2.93-2.97,6.23-1.73,9.83c0.93,2.68,2.65,4.83,4.55,6.86c0.25,0.27,0.5,0.53,0.75,0.8C37.52,42.69,37.47,42.74,37.42,42.79z"
	/>
<path class="st11" d="M21.93,63.02c-1.21,0.36-2.35,0.72-3.41,1.28c-0.62,0.33-1.21,0.7-1.66,1.25c-0.67,0.81-0.59,1.56,0.27,2.16
	c1.13,0.78,2.43,1.15,3.73,1.48c6.58,1.67,13.28,2.06,20.04,1.76c4.71-0.21,9.4-0.62,13.97-1.9c1.18-0.33,2.33-0.73,3.4-1.33
	c0.73-0.4,1.42-0.86,1.82-1.61c0.24-0.45,0.43-0.36,0.71-0.06c0.56,0.61,0.62,1.46,0.1,2.2c-0.51,0.74-1.26,1.19-2.05,1.58
	c-2.12,1.05-4.39,1.62-6.69,2.05c-7.92,1.49-15.89,1.75-23.91,1.09c-4.2-0.35-8.38-0.86-12.45-1.98c-1.28-0.35-2.53-0.78-3.65-1.51
	c-1.66-1.08-1.71-2.41-0.11-3.56c1.92-1.39,4.17-1.98,6.42-2.54c0.89-0.22,1.81-0.35,2.71-0.53C21.44,62.8,21.68,62.73,21.93,63.02z
	"/>
<path class="st12" d="M52.87,16.53c-1.7,1.04-3.36,2.08-4.89,3.33c-1.59,1.3-3.04,2.74-4.06,4.55c-1.23,2.19-1.38,4.43-0.28,6.73
	c0.63,1.33,1.41,2.58,2.15,3.85c1.59,2.73,1.13,4.85-0.74,7.16c-0.83,1.04-1.85,1.88-2.95,2.63c-0.17,0.12-0.39,0.35-0.58,0.11
	c-0.16-0.19,0.08-0.36,0.19-0.51c1.47-2.06,1.49-4.21,0.38-6.42c-0.53-1.08-1.17-2.09-1.84-3.08c-3.04-4.45-1.83-8.59,1.28-11.88
	c2.2-2.32,4.92-3.88,7.8-5.18C50.48,17.29,51.64,16.8,52.87,16.53z"/>
<path class="st11" d="M30.09,42.84c-1.56,0.33-3.08,0.6-4.55,1.06c-0.71,0.23-1.43,0.44-2.05,0.88c-0.64,0.46-0.62,0.86,0.07,1.23
	c1.12,0.6,2.36,0.8,3.58,1c6.53,1.03,13.07,1.02,19.61,0.22c2.05-0.25,4.1-0.57,6.11-1.06c0.25-0.06,0.48-0.08,0.72,0.06
	c0.59,0.36,1.2,0.7,1.88,1.1c-0.47,0.34-0.95,0.45-1.4,0.59c-3.69,1.14-7.49,1.67-11.32,1.95c-4.49,0.32-8.98,0.29-13.46-0.16
	c-3-0.3-5.99-0.75-8.85-1.78c-0.56-0.2-1.11-0.45-1.61-0.78c-0.98-0.64-0.98-1.38,0.01-2.03c0.86-0.57,1.83-0.9,2.82-1.16
	c2.61-0.71,5.27-1.1,7.95-1.32C29.76,42.63,29.91,42.6,30.09,42.84z"/>
<path class="st11" d="M52.24,55.49c-1.97,0.94-3.91,1.37-5.87,1.7c-6.63,1.1-13.25,1.09-19.84-0.27c-1.46-0.3-2.92-0.68-4.21-1.46
	c-1.33-0.81-1.32-1.72,0.04-2.42c1.41-0.72,2.94-1.02,4.49-1.28c0.04,0.23-0.13,0.24-0.21,0.31c-0.79,0.68-0.75,1.25,0.19,1.71
	c1.54,0.77,3.24,1,4.92,1.17c5.57,0.58,11.11,0.36,16.57-0.9c0.93-0.21,1.57,0.03,2.28,0.47C51.09,54.84,51.61,55.12,52.24,55.49z"
	/>
<path class="st11" d="M48.86,64.02c-1.98,1.07-3.99,1.55-6.03,1.83c-4.7,0.64-9.39,0.59-14.02-0.55c-1.09-0.27-2.16-0.61-3.1-1.24
	c-1.27-0.84-1.24-1.83,0.09-2.57c0.99-0.55,2.06-0.84,3.25-1.02c-0.02,0.37-0.33,0.69-0.05,1c0.24,0.27,0.55,0.43,0.88,0.55
	c1.85,0.67,3.8,0.8,5.73,0.88c3.17,0.12,6.32-0.07,9.43-0.78c0.2-0.05,0.37-0.08,0.57,0.03C46.65,62.75,47.71,63.36,48.86,64.02z"/>
<path class="st11" d="M54.47,56.76c1.67-0.99,3.28-1.94,4.71-3.15c1.81-1.54,3.25-3.3,3.6-5.75c0.42-2.91-1.58-5.2-4.54-5.19
	c-0.24,0-0.65,0.22-0.69-0.13c-0.04-0.32,0.4-0.29,0.65-0.35c1.72-0.4,3.42-0.35,5.04,0.4c2.8,1.29,3.89,4.3,2.58,7.09
	c-0.77,1.63-2.04,2.81-3.49,3.83c-2.16,1.52-4.55,2.56-7.06,3.35C55.05,56.92,54.81,57.03,54.47,56.76z"/>
</svg>
