<?xml version="1.0" encoding="utf-8"?>
<!-- Generator: Adobe Illustrator 27.7.0, SVG Export Plug-In . SVG Version: 6.00 Build 0)  -->
<svg version="1.1" id="Layer_1" xmlns="http://www.w3.org/2000/svg" xmlns:xlink="http://www.w3.org/1999/xlink" x="0px" y="0px"
	 viewBox="0 0 80 80" style="enable-background:new 0 0 80 80;" xml:space="preserve">
<style type="text/css">
	.st0{fill:#101010;}
	.st1{fill:#FF0000;}
	.st2{fill:url(#SVGID_1_);}
	.st3{fill:url(#SVGID_00000046304553380168402790000003843110002145985681_);}
	.st4{fill:url(#SVGID_00000139290109191817507790000016319235922714573700_);}
	.st5{fill:#00A9D9;}
	.st6{fill:url(#SVGID_00000154394177354535370780000014326048321146222260_);}
	.st7{fill:url(#SVGID_00000106118876859196466090000007408464181461039539_);}
	.st8{fill:url(#SVGID_00000044863760846820537210000010612558030248229814_);}
	.st9{fill:url(#SVGID_00000079482717194244958500000000274828296087288966_);}
	.st10{fill:url(#SVGID_00000048500121864204620630000009774890261669294767_);}
	.st11{fill:#457796;}
	.st12{fill:#DE8F32;}
	.st13{fill:#FFFFFF;}
	.st14{fill-rule:evenodd;clip-rule:evenodd;}
	.st15{fill-rule:evenodd;clip-rule:evenodd;fill:#FF0000;}
</style>
<g>
	<path class="st0" d="M39.53,12.92c10.4,0,20.8,0.05,31.19-0.03c2.96-0.02,5.08,2.32,5.07,5.06c-0.07,12.93-0.03,25.86-0.03,38.79
		c0,3.03-1.98,5-5.02,5.01c-4.35,0-8.7-0.01-13.04,0.01c-0.62,0-0.83-0.14-0.82-0.8c0.04-2.88,0.04-5.75,0-8.63
		c-0.01-0.67,0.23-0.79,0.83-0.79c4.72,0.02,9.43,0,14.15,0.03c0.67,0,0.85-0.18,0.85-0.85c-0.02-10.88-0.01-21.76-0.02-32.65
		c0-1.53-0.56-2.09-2.07-2.09c-20.73,0-41.46,0-62.18,0c-1.51,0-2.08,0.57-2.08,2.09c0,10.88,0.01,21.76-0.01,32.65
		c0,0.66,0.17,0.87,0.84,0.85c1.54-0.04,1.54-0.01,1.54,1.56c0,2.62-0.02,5.25,0.01,7.87c0.01,0.64-0.21,0.77-0.8,0.75
		c-2.66-0.1-4.63-2.1-4.63-4.76c0-13.14,0-26.27,0-39.41c0-2.65,2.01-4.66,4.68-4.66C18.51,12.91,29.02,12.92,39.53,12.92z"/>
</g>
<g>
	<path class="st0" d="M24.52,32.58c0,1.83,0,3.59,0,5.42c-1.05,0-2.04,0-3.11,0c0-1.27,0-2.5,0-3.74c0-0.81-0.02-1.61,0.01-2.42
		c0.04-1.33,0.99-2.29,2.31-2.37c0.23-0.01,0.46-0.01,0.69-0.01c9.32,0,18.64,0,27.95,0c2.12,0,2.9,0.79,2.9,2.93
		c0,12.61,0,25.22-0.01,37.83c0,0.63-0.08,1.3-0.31,1.88c-0.37,0.94-1.08,1.44-2.19,1.44c-6.88-0.03-13.76-0.02-20.64-0.02
		c-0.21,0-0.41,0-0.81,0c1.63-1.87,1-4.07,1.19-6.2c0.31,0,0.58,0,0.85,0c6,0,12.01-0.01,18.01,0.01c0.67,0,0.84-0.18,0.84-0.84
		c-0.02-11.04-0.02-22.09,0-33.13c0-0.6-0.11-0.84-0.78-0.84c-8.72,0.02-17.44,0.02-26.16,0.02C25.05,32.54,24.84,32.56,24.52,32.58
		z M37.23,69.97c0,0.82,0.65,1.5,1.4,1.48c0.73-0.02,1.34-0.7,1.35-1.48c0-0.79-0.6-1.45-1.34-1.47
		C37.86,68.49,37.23,69.14,37.23,69.97z"/>
</g>
<path class="st1" d="M30.81,56.54c0,4.55-0.01,9.11,0.01,13.66c0,1.16-0.35,2.16-1.35,2.78c-0.5,0.31-1.15,0.51-1.73,0.51
	c-4.74,0.04-9.48,0.02-14.21,0.02c-1.8,0-3.13-1.3-3.15-3.13c-0.02-1.98,0-3.96,0-5.93c0-7.08,0-14.17,0-21.25
	c0-2.3,1.19-3.49,3.48-3.49c4.53,0,9.06,0,13.59,0c2.19,0,3.36,1.17,3.36,3.37C30.81,47.57,30.81,52.05,30.81,56.54z M13.53,42.85
	c0,7.9,0,15.76,0,23.61c4.75,0,9.45,0,14.16,0c0-7.9,0-15.73,0-23.61C22.94,42.85,18.24,42.85,13.53,42.85z M21.83,69.98
	c0.01-0.82-0.62-1.48-1.4-1.47c-0.74,0.01-1.34,0.67-1.34,1.46c0,0.79,0.6,1.46,1.33,1.48C21.17,71.48,21.82,70.79,21.83,69.98z"/>
<g>
	<path class="st0" d="M60.4,72.78c-0.96,0-1.93-0.01-2.89,0.01c-0.42,0.01-0.62-0.1-0.61-0.57c0.03-1.24-0.02-2.48,0.03-3.72
		c0.01-0.3,0.32-0.58,0.49-0.87c0.24,0.18,0.62,0.32,0.69,0.55c0.56,1.92,2.12,2.53,3.79,3c0.53,0.15,1.06,0.31,1.58,0.47
		c0.41,0.12,0.56,0.45,0.42,0.8c-0.06,0.16-0.4,0.3-0.62,0.31C62.33,72.8,61.36,72.78,60.4,72.78z"/>
</g>
</svg>
