<?xml version="1.0" encoding="utf-8"?>
<!-- Generator: Adobe Illustrator 27.7.0, SVG Export Plug-In . SVG Version: 6.00 Build 0)  -->
<svg version="1.1" id="Layer_1" xmlns="http://www.w3.org/2000/svg" xmlns:xlink="http://www.w3.org/1999/xlink" x="0px" y="0px"
	 viewBox="0 0 80 80" style="enable-background:new 0 0 80 80;" xml:space="preserve">
<style type="text/css">
	.st0{fill:#101010;}
	.st1{fill:#FF0000;}
	.st2{fill:#6D6D6D;}
	.st3{fill:#FFFFFF;}
	.st4{fill-rule:evenodd;clip-rule:evenodd;}
	.st5{fill-rule:evenodd;clip-rule:evenodd;fill:#FF0000;}
</style>
<g>
	<path class="st0" d="M78.05,63.98c-0.17-1.82-0.76-3.56-1.34-5.28c-1.02-3.03-2.62-5.76-4.6-8.26c-0.26-0.32-0.3-0.59-0.19-0.98
		c0.55-1.93,0.96-3.88,1.05-5.9c0.01-0.06,0.03-0.12,0.04-0.18c0-0.19,0.01-0.39,0.01-0.58c0.01-0.08,0.01-0.15,0.02-0.23
		c0-0.19,0.01-0.38,0.01-0.57c0.12-0.25,0.07-0.53,0.08-0.79c0.06-1.43-0.11-2.85-0.25-4.26c-0.48-4.69-1.89-9.13-3.95-13.36
		c-3.68-7.55-8.97-13.78-15.61-18.87c-1.4-1.08-2.84-2.12-4.4-2.98c0,0,0,0,0,0c-0.04-0.05-0.09-0.09-0.16-0.06
		c0,0.07,0.03,0.11,0.1,0.12c0.88,1.4,1.84,2.75,2.66,4.2c4.09,7.17,6.5,14.78,6.06,23.13c-0.16,3.07-0.8,6.04-1.86,8.93
		c-0.11,0.29-0.19,0.4-0.5,0.19c-0.78-0.53-1.62-0.94-2.4-1.47c-3.28-2.24-6.53-4.5-9.7-6.9c-7.95-6.02-15.51-12.48-22.64-19.47
		c-0.72-0.7-1.39-1.46-2.18-2.08c-0.01-0.07-0.04-0.1-0.11-0.11c-0.02,0.07,0,0.12,0.08,0.14c0.06,0.33,0.3,0.56,0.49,0.83
		c1.66,2.41,3.39,4.78,5.15,7.12c3.38,4.49,6.88,8.89,10.56,13.14c1.62,1.87,3.29,3.7,4.94,5.55c-0.03,0.03-0.06,0.05-0.09,0.08
		c-0.98-0.52-1.9-1.14-2.81-1.76c-9.57-6.47-18.75-13.46-27.4-21.13c-0.1-0.09-0.21-0.16-0.32-0.25c0.42,0.76,0.89,1.45,1.34,2.16
		c1.03,1.64,2.42,3,3.6,4.52c3.24,4.2,6.63,8.27,10.13,12.26c2.09,2.38,4.25,4.7,6.48,6.95c1.57,1.59,3.11,3.2,4.81,4.66
		c0.14,0.15,0.28,0.31,0.43,0.45c2.92,2.72,5.93,5.33,9.1,7.76c0.42,0.32,0.36,0.44-0.06,0.67c-1.25,0.7-2.53,1.34-3.86,1.86
		c-5.59,2.2-11.36,2.67-17.26,1.84C15.55,53.98,8.39,51,1.93,46.31c-0.16-0.11-0.29-0.32-0.54-0.25c3.55,5.61,8.22,10.46,13.47,14.3
		c3.45,2.53,7.16,4.61,11.13,6.22c4.85,1.96,9.86,3.19,15.1,3.41c4.19,0.17,8.3-0.27,12.31-1.56c1.98-0.64,3.82-1.6,5.7-2.5
		c2.31-1.1,4.79-1.84,7.4-1.99c3.33-0.19,6.21,0.77,8.5,3.27c0.83,0.9,1.5,1.92,2.07,3.01c0.09,0.17,0.15,0.39,0.38,0.37
		c0.21-0.02,0.29-0.23,0.37-0.4c0.15-0.33,0.22-0.69,0.29-1.04C78.44,67.42,78.21,65.7,78.05,63.98z"/>
	<path class="st0" d="M18.03,8.14c-0.01,0-0.02,0.03-0.03,0.04c0.05,0.01,0.11,0.02,0.16,0.03C18.15,8.15,18.1,8.12,18.03,8.14z"/>
	<path class="st0" d="M18.18,8.22c-0.01,0-0.01,0-0.02,0c0,0.01,0.01,0.01,0.01,0.01c0,0,0.01,0,0.01,0
		C18.18,8.23,18.18,8.23,18.18,8.22L18.18,8.22z"/>
	<path class="st0" d="M48.73,1.67c0,0,0.01,0.01,0.02,0.01c-0.01-0.01-0.01-0.02-0.02-0.03C48.73,1.66,48.72,1.67,48.73,1.67z"/>
	<path class="st0" d="M48.77,1.69c-0.01,0-0.01-0.01-0.02-0.01c0,0.01,0.01,0.01,0.01,0.02C48.76,1.7,48.76,1.7,48.77,1.69
		C48.77,1.7,48.77,1.7,48.77,1.69L48.77,1.69z"/>
</g>
</svg>
